<svg width="55" height="54" viewBox="0 0 55 54" fill="none" xmlns="http://www.w3.org/2000/svg">
<path fill-rule="evenodd" clip-rule="evenodd" d="M23 2.79167C11.8853 2.79167 2.875 11.5408 2.875 22.3333C2.875 33.1259 11.8853 41.875 23 41.875C34.1147 41.875 43.125 33.1259 43.125 22.3333C43.125 11.5408 34.1147 2.79167 23 2.79167ZM0 22.3333C0 9.99897 10.2975 0 23 0C35.7025 0 46 9.99897 46 22.3333C46 34.6677 35.7025 44.6667 23 44.6667C10.2975 44.6667 0 34.6677 0 22.3333Z" fill="#F5F5F5" fill-opacity="0.6"/>
<path fill-rule="evenodd" clip-rule="evenodd" d="M40.671 39.4921C41.2324 38.947 42.1426 38.947 42.704 39.4921L54.204 50.6587C54.7653 51.2039 54.7653 52.0876 54.204 52.6328C53.6426 53.1779 52.7324 53.1779 52.171 52.6328L40.671 41.4661C40.1096 40.921 40.1096 40.0372 40.671 39.4921Z" fill="#FF16A2" fill-opacity="0.8"/>
</svg>
